<svg width="182" height="46" viewBox="0 0 182 46" fill="none" xmlns="http://www.w3.org/2000/svg">
<path d="M41.8895 17.3136H29.9239V3.36439H19.4941V17.3136H10.9838V0.165039H0.554199V25.5039H19.3021V44.956H29.9239V25.5039H41.8895V17.3136ZM66.7155 13.8583C62.6843 13.8583 59.357 15.01 56.7975 17.1216L57.1814 9.12323H79.8328V0.165039H48.7351L48.0313 25.184H58.2692C59.7409 23.3283 61.8525 22.4325 64.4119 22.4325C68.827 22.4325 71.8984 25.12 71.8984 29.4711C71.8984 33.6942 68.955 36.5737 64.4119 36.5737C59.8689 36.5737 56.7975 33.7582 56.6055 29.0232H45.6637C45.5358 39.0052 53.1502 45.5958 64.22 45.5958C75.3537 45.5958 82.8402 38.9412 82.8402 29.2151C82.8402 19.937 76.1216 13.8583 66.7155 13.8583ZM90.6866 44.956H100.861V10.9149L101.244 10.8509L110.587 41.1167H119.865L129.271 10.8509L129.655 10.9149V44.956H139.829V0.165039H123.704L115.386 30.111H115.13L106.811 0.165039H90.6866V44.956ZM181.907 18.7853H169.622V6.62773H160.855V18.7853H148.634V27.6795H160.855V39.837H169.622V27.6795H181.907V18.7853Z" fill="#050038"/>
</svg>
