<svg width="173" height="47" viewBox="0 0 173 47" fill="none" xmlns="http://www.w3.org/2000/svg">
<path d="M11.5301 45.9556H21.7041V1.16477H11.7861L11.6581 2.76445C11.4022 6.47569 9.67452 8.20334 5.89929 8.3953L0.588379 8.65125V16.8416H11.5301V45.9556ZM53.0867 46.5955C67.0358 46.5955 77.4657 36.7415 77.4657 23.5602C77.4657 10.4429 67.0358 0.524902 53.0867 0.524902C39.1375 0.524902 28.7076 10.4429 28.7076 23.5602C28.7076 36.7415 39.1375 46.5955 53.0867 46.5955ZM53.0867 37.0614C45.3442 37.0614 39.9053 31.4946 39.9053 23.5602C39.9053 15.6898 45.3442 10.1229 53.0867 10.1229C60.8291 10.1229 66.268 15.6898 66.268 23.5602C66.268 31.4946 60.8291 37.0614 53.0867 37.0614ZM107.139 46.5955C121.088 46.5955 131.518 36.7415 131.518 23.5602C131.518 10.4429 121.088 0.524902 107.139 0.524902C93.1895 0.524902 82.7596 10.4429 82.7596 23.5602C82.7596 36.7415 93.1895 46.5955 107.139 46.5955ZM107.139 37.0614C99.3962 37.0614 93.9573 31.4946 93.9573 23.5602C93.9573 15.6898 99.3962 10.1229 107.139 10.1229C114.881 10.1229 120.32 15.6898 120.32 23.5602C120.32 31.4946 114.881 37.0614 107.139 37.0614ZM172.33 19.785H160.045V7.62746H151.279V19.785H139.057V28.6792H151.279V40.8367H160.045V28.6792H172.33V19.785Z" fill="#050038"/>
</svg>
