<svg width="75" height="45" viewBox="0 0 75 45" fill="none" xmlns="http://www.w3.org/2000/svg">
<path d="M47.4475 18.3046V10.1783H37.2736L37.4016 0.196289H28.9553L28.7633 10.1783H19.1013L19.2293 0.196289H10.719L10.5911 10.1783H0.0332031V18.3046H10.4631L10.3351 26.9428H0.0332031V35.0692H10.2071L10.0792 44.9871H18.5894L18.7174 35.0692H28.4434L28.3154 44.9871H36.7617L36.8897 35.0692H47.4475V26.9428H37.0177L37.1456 18.3046H47.4475ZM28.5714 26.9428H18.8454L18.9733 18.3046H28.6994L28.5714 26.9428ZM64.0561 44.9871H74.23V0.196289H64.3121L64.1841 1.79597C63.9282 5.50721 62.2005 7.23485 58.4253 7.42681L53.1144 7.68277V15.8731H64.0561V44.9871Z" fill="#050038"/>
</svg>
