<svg width="147" height="47" viewBox="0 0 147 47" fill="none" xmlns="http://www.w3.org/2000/svg">
<path d="M19.654 0.556152C8.45624 0.556152 0.841797 7.53073 0.841797 17.3207C0.841797 26.5349 7.62441 32.9975 16.7745 32.9975C18.1183 32.9975 19.27 32.8056 20.3578 32.4856L8.00833 45.9869H20.1659L31.0436 33.1895C33.7951 29.9262 38.5301 24.4233 38.5301 17.0008C38.5301 7.40276 30.8517 0.556152 19.654 0.556152ZM19.7179 25.1911C15.1109 25.1911 11.9115 22.0558 11.9115 17.4487C11.9115 12.8416 15.1749 9.70628 19.7179 9.70628C24.389 9.70628 27.5243 12.9056 27.5243 17.4487C27.5243 21.9918 24.389 25.1911 19.7179 25.1911ZM62.3952 0.556152C51.1975 0.556152 43.5831 7.53073 43.5831 17.3207C43.5831 26.5349 50.3657 32.9975 59.5158 32.9975C60.8595 32.9975 62.0113 32.8056 63.0991 32.4856L50.7496 45.9869H62.9071L73.7849 33.1895C76.5363 29.9262 81.2714 24.4233 81.2714 17.0008C81.2714 7.40276 73.5929 0.556152 62.3952 0.556152ZM62.4592 25.1911C57.8522 25.1911 54.6528 22.0558 54.6528 17.4487C54.6528 12.8416 57.9161 9.70628 62.4592 9.70628C67.1303 9.70628 70.2656 12.9056 70.2656 17.4487C70.2656 21.9918 67.1303 25.1911 62.4592 25.1911ZM99.6456 24.6792C106.812 24.6792 112.187 19.4963 112.187 12.6497C112.187 5.73909 106.812 0.556152 99.6456 0.556152C92.4791 0.556152 87.1682 5.73909 87.1682 12.6497C87.1682 19.4963 92.4791 24.6792 99.6456 24.6792ZM95.1665 45.9869H105.532L138.422 1.19602H127.992L95.1665 45.9869ZM99.6456 17.0008C97.2141 17.0008 95.4865 15.2092 95.4865 12.6497C95.4865 10.0262 97.2141 8.23458 99.6456 8.23458C102.141 8.23458 103.869 10.0262 103.869 12.6497C103.869 15.2092 102.141 17.0008 99.6456 17.0008ZM133.879 46.6267C141.045 46.6267 146.42 41.5078 146.42 34.5972C146.42 27.7506 141.045 22.5677 133.879 22.5677C126.776 22.5677 121.401 27.7506 121.401 34.5972C121.401 41.5078 126.776 46.6267 133.879 46.6267ZM133.879 39.0123C131.447 39.0123 129.719 37.1567 129.719 34.5972C129.719 32.0377 131.447 30.1821 133.879 30.1821C136.374 30.1821 138.102 32.0377 138.102 34.5972C138.102 37.1567 136.374 39.0123 133.879 39.0123Z" fill="#050038"/>
</svg>
