<svg width="113" height="47" viewBox="0 0 113 47" fill="none" xmlns="http://www.w3.org/2000/svg">
<path d="M0.275879 45.9869H10.8977V1.19602H0.275879V45.9869ZM39.6138 46.6267C51.8353 46.6267 59.3218 40.484 59.3218 31.1419C59.3218 23.4635 54.4588 19.0484 45.3087 17.8966L36.9904 16.8088C34.7508 16.4889 31.9994 15.7211 31.9994 12.9056C31.9994 10.2822 34.3029 8.61851 37.6302 8.61851C41.3415 8.61851 43.645 10.2822 44.4129 13.6095L55.7385 13.5455C55.0987 5.54714 48.2521 0.556152 38.0142 0.556152C27.5843 0.556152 21.3136 5.80309 21.3136 14.0574C21.3136 20.904 25.5367 24.8712 33.919 25.959L43.0691 27.1107C45.5646 27.4947 48.1881 28.3905 48.1881 31.7818C48.1881 35.557 44.9887 37.7965 39.8058 37.7965C33.4071 37.7965 29.5679 34.4052 29.184 28.3265H17.1544C17.6023 38.8203 25.7927 46.6267 39.6138 46.6267ZM87.917 46.6267C101.866 46.6267 112.296 36.7728 112.296 23.5914C112.296 10.4741 101.866 0.556152 87.917 0.556152C73.9678 0.556152 63.538 10.4741 63.538 23.5914C63.538 36.7728 73.9678 46.6267 87.917 46.6267ZM87.917 37.0927C80.1746 37.0927 74.7357 31.5258 74.7357 23.5914C74.7357 15.7211 80.1746 10.1542 87.917 10.1542C95.6594 10.1542 101.098 15.7211 101.098 23.5914C101.098 31.5258 95.6594 37.0927 87.917 37.0927Z" fill="#050038"/>
</svg>
